{
  "asset": {
    "version": "2.0",
    "generator": "GLTFExporter"
  },
  "scenes": [
    {
      "name": "Scene",
      "nodes": [
        12
      ]
    }
  ],
  "scene": 0,
  "nodes": [
    {
      "name": "mesh_0",
      "mesh": 0
    },
    {
      "matrix": [
        0.01,
        0,
        0,
        0,
        0,
        0.01,
        0,
        0,
        0,
        0,
        0.01,
        0,
        0,
        0,
        0,
        1
      ],
      "name": "pCube1",
      "extras": {
        "name": "pCube1"
      },
      "children": [
        0
      ]
    },
    {
      "name": "mesh_1",
      "mesh": 1
    },
    {
      "matrix": [
        0.005675865319296618,
        0,
        0,
        0,
        0,
        0.005675865319296618,
        0,
        0,
        0,
        0,
        0.005675865319296618,
        0,
        0,
        0,
        0,
        1
      ],
      "name": "pSphere1",
      "extras": {
        "name": "pSphere1"
      },
      "children": [
        2
      ]
    },
    {
      "name": "RootNode",
      "extras": {
        "name": "RootNode"
      },
      "children": [
        1,
        3
      ]
    },
    {
      "matrix": [
        100,
        0,
        0,
        0,
        0,
        100.0000000000001,
        0,
        0,
        0,
        0,
        100.0000000000001,
        0,
        -7.5,
        0,
        0,
        1
      ],
      "name": "model.gltf",
      "children": [
        4
      ]
    },
    {
      "name": "mesh_0",
      "mesh": 2
    },
    {
      "matrix": [
        0.01,
        0,
        0,
        0,
        0,
        0.01,
        0,
        0,
        0,
        0,
        0.01,
        0,
        0,
        0,
        0,
        1
      ],
      "name": "pCube1",
      "extras": {
        "name": "pCube1"
      },
      "children": [
        6
      ]
    },
    {
      "name": "mesh_1",
      "mesh": 3
    },
    {
      "matrix": [
        0.005675865319296618,
        0,
        0,
        0,
        0,
        0.005675865319296618,
        0,
        0,
        0,
        0,
        0.005675865319296618,
        0,
        0,
        0,
        0,
        1
      ],
      "name": "pSphere1",
      "extras": {
        "name": "pSphere1"
      },
      "children": [
        8
      ]
    },
    {
      "name": "RootNode",
      "extras": {
        "name": "RootNode"
      },
      "children": [
        7,
        9
      ]
    },
    {
      "matrix": [
        100,
        0,
        0,
        0,
        0,
        100,
        0,
        0,
        0,
        0,
        100,
        0,
        7.5,
        0,
        0,
        1
      ],
      "name": "model.gltf",
      "children": [
        10
      ]
    },
    {
      "name": "Group",
      "children": [
        5,
        11
      ]
    }
  ],
  "bufferViews": [
    {
      "buffer": 0,
      "byteOffset": 0,
      "byteLength": 15408,
      "target": 34962,
      "byteStride": 12
    },
    {
      "buffer": 0,
      "byteOffset": 15408,
      "byteLength": 15408,
      "target": 34962,
      "byteStride": 12
    },
    {
      "buffer": 0,
      "byteOffset": 30816,
      "byteLength": 20544,
      "target": 34962,
      "byteStride": 16
    },
    {
      "buffer": 0,
      "byteOffset": 51360,
      "byteLength": 10272,
      "target": 34962,
      "byteStride": 8
    },
    {
      "buffer": 0,
      "byteOffset": 61632,
      "byteLength": 5136,
      "target": 34963
    },
    {
      "buffer": 0,
      "byteOffset": 66768,
      "byteLength": 27360,
      "target": 34962,
      "byteStride": 12
    },
    {
      "buffer": 0,
      "byteOffset": 94128,
      "byteLength": 27360,
      "target": 34962,
      "byteStride": 12
    },
    {
      "buffer": 0,
      "byteOffset": 121488,
      "byteLength": 36480,
      "target": 34962,
      "byteStride": 16
    },
    {
      "buffer": 0,
      "byteOffset": 157968,
      "byteLength": 18240,
      "target": 34962,
      "byteStride": 8
    },
    {
      "buffer": 0,
      "byteOffset": 176208,
      "byteLength": 9120,
      "target": 34963
    },
    {
      "buffer": 0,
      "byteOffset": 185328,
      "byteLength": 15408,
      "target": 34962,
      "byteStride": 12
    },
    {
      "buffer": 0,
      "byteOffset": 200736,
      "byteLength": 15408,
      "target": 34962,
      "byteStride": 12
    },
    {
      "buffer": 0,
      "byteOffset": 216144,
      "byteLength": 20544,
      "target": 34962,
      "byteStride": 16
    },
    {
      "buffer": 0,
      "byteOffset": 236688,
      "byteLength": 10272,
      "target": 34962,
      "byteStride": 8
    },
    {
      "buffer": 0,
      "byteOffset": 246960,
      "byteLength": 5136,
      "target": 34963
    },
    {
      "buffer": 0,
      "byteOffset": 252096,
      "byteLength": 27360,
      "target": 34962,
      "byteStride": 12
    },
    {
      "buffer": 0,
      "byteOffset": 279456,
      "byteLength": 27360,
      "target": 34962,
      "byteStride": 12
    },
    {
      "buffer": 0,
      "byteOffset": 306816,
      "byteLength": 36480,
      "target": 34962,
      "byteStride": 16
    },
    {
      "buffer": 0,
      "byteOffset": 343296,
      "byteLength": 18240,
      "target": 34962,
      "byteStride": 8
    },
    {
      "buffer": 0,
      "byteOffset": 361536,
      "byteLength": 9120,
      "target": 34963
    }
  ],
  "buffers": [
    {
      "byteLength": 370656,
      "uri": "data:application/octet-stream;base64,"
    }
  ],
  "accessors": [
    {
      "bufferView": 0,
      "componentType": 5126,
      "count": 1284,
      "max": [
        0.9959271550178528,
        0.9997666478157043,
        0.9959251284599304
      ],
      "min": [
        -0.9959231615066528,
        -0.9974637627601624,
        -0.9959287643432617
      ],
      "type": "VEC3"
    },
    {
      "bufferView": 1,
      "componentType": 5126,
      "count": 1284,
      "max": [
        0.5791164636611938,
        4.908633232116699,
        0.5791164636611938
      ],
      "min": [
        -0.5791164636611938,
        1.1513557434082031,
        -0.5791164636611938
      ],
      "type": "VEC3"
    },
    {
      "bufferView": 2,
      "componentType": 5126,
      "count": 1284,
      "max": [
        0.9999274611473083,
        0.9857465624809265,
        0.9998780488967896,
        1
      ],
      "min": [
        -0.6790932416915894,
        -0.9007337689399719,
        -0.9998769760131836,
        -1
      ],
      "type": "VEC4"
    },
    {
      "bufferView": 3,
      "componentType": 5126,
      "count": 1284,
      "max": [
        0.875,
        4.7317890867973136e-18
      ],
      "min": [
        0.125,
        -0.9375062584877014
      ],
      "type": "VEC2"
    },
    {
      "bufferView": 4,
      "componentType": 5125,
      "count": 1284,
      "max": [
        1283
      ],
      "min": [
        0
      ],
      "type": "SCALAR"
    },
    {
      "bufferView": 5,
      "componentType": 5126,
      "count": 2280,
      "max": [
        1,
        1,
        0.9999999403953552
      ],
      "min": [
        -0.9999999403953552,
        -1,
        -1
      ],
      "type": "VEC3"
    },
    {
      "bufferView": 6,
      "componentType": 5126,
      "count": 2280,
      "max": [
        1,
        1,
        1.0000001192092896
      ],
      "min": [
        -1.000000238418579,
        -1,
        -1.0000004768371582
      ],
      "type": "VEC3"
    },
    {
      "bufferView": 7,
      "componentType": 5126,
      "count": 2280,
      "max": [
        1,
        0.07869059592485428,
        1,
        1
      ],
      "min": [
        -1,
        -0.07869064807891846,
        -1,
        1
      ],
      "type": "VEC4"
    },
    {
      "bufferView": 8,
      "componentType": 5126,
      "count": 2280,
      "max": [
        1.0000001192092896,
        0
      ],
      "min": [
        0,
        -1
      ],
      "type": "VEC2"
    },
    {
      "bufferView": 9,
      "componentType": 5125,
      "count": 2280,
      "max": [
        2279
      ],
      "min": [
        0
      ],
      "type": "SCALAR"
    },
    {
      "bufferView": 10,
      "componentType": 5126,
      "count": 1284,
      "max": [
        0.9959271550178528,
        0.9997666478157043,
        0.9959251284599304
      ],
      "min": [
        -0.9959231615066528,
        -0.9974637627601624,
        -0.9959287643432617
      ],
      "type": "VEC3"
    },
    {
      "bufferView": 11,
      "componentType": 5126,
      "count": 1284,
      "max": [
        0.5791164636611938,
        4.908633232116699,
        0.5791164636611938
      ],
      "min": [
        -0.5791164636611938,
        1.1513557434082031,
        -0.5791164636611938
      ],
      "type": "VEC3"
    },
    {
      "bufferView": 12,
      "componentType": 5126,
      "count": 1284,
      "max": [
        0.9999274611473083,
        0.9857465624809265,
        0.9998780488967896,
        1
      ],
      "min": [
        -0.6790932416915894,
        -0.9007337689399719,
        -0.9998769760131836,
        -1
      ],
      "type": "VEC4"
    },
    {
      "bufferView": 13,
      "componentType": 5126,
      "count": 1284,
      "max": [
        0.875,
        4.7317890867973136e-18
      ],
      "min": [
        0.125,
        -0.9375062584877014
      ],
      "type": "VEC2"
    },
    {
      "bufferView": 14,
      "componentType": 5125,
      "count": 1284,
      "max": [
        1283
      ],
      "min": [
        0
      ],
      "type": "SCALAR"
    },
    {
      "bufferView": 15,
      "componentType": 5126,
      "count": 2280,
      "max": [
        1,
        1,
        0.9999999403953552
      ],
      "min": [
        -0.9999999403953552,
        -1,
        -1
      ],
      "type": "VEC3"
    },
    {
      "bufferView": 16,
      "componentType": 5126,
      "count": 2280,
      "max": [
        1,
        1,
        1.0000001192092896
      ],
      "min": [
        -1.000000238418579,
        -1,
        -1.0000004768371582
      ],
      "type": "VEC3"
    },
    {
      "bufferView": 17,
      "componentType": 5126,
      "count": 2280,
      "max": [
        1,
        0.07869059592485428,
        1,
        1
      ],
      "min": [
        -1,
        -0.07869064807891846,
        -1,
        1
      ],
      "type": "VEC4"
    },
    {
      "bufferView": 18,
      "componentType": 5126,
      "count": 2280,
      "max": [
        1.0000001192092896,
        0
      ],
      "min": [
        0,
        -1
      ],
      "type": "VEC2"
    },
    {
      "bufferView": 19,
      "componentType": 5125,
      "count": 2280,
      "max": [
        2279
      ],
      "min": [
        0
      ],
      "type": "SCALAR"
    }
  ],
  "materials": [
    {
      "pbrMetallicRoughness": {
        "baseColorFactor": [
          1,
          0,
          0,
          1
        ],
        "metallicFactor": 1,
        "roughnessFactor": 1
      },
      "name": "lambert1"
    },
    {
      "pbrMetallicRoughness": {
        "baseColorFactor": [
          1,
          0,
          0,
          1
        ],
        "metallicFactor": 1,
        "roughnessFactor": 1
      },
      "name": "lambert1"
    }
  ],
  "meshes": [
    {
      "primitives": [
        {
          "mode": 4,
          "attributes": {
            "NORMAL": 0,
            "POSITION": 1,
            "TANGENT": 2,
            "TEXCOORD_0": 3
          },
          "indices": 4,
          "material": 0
        }
      ]
    },
    {
      "primitives": [
        {
          "mode": 4,
          "attributes": {
            "NORMAL": 5,
            "POSITION": 6,
            "TANGENT": 7,
            "TEXCOORD_0": 8
          },
          "indices": 9,
          "material": 0
        }
      ]
    },
    {
      "primitives": [
        {
          "mode": 4,
          "attributes": {
            "NORMAL": 10,
            "POSITION": 11,
            "TANGENT": 12,
            "TEXCOORD_0": 13
          },
          "indices": 14,
          "material": 1
        }
      ]
    },
    {
      "primitives": [
        {
          "mode": 4,
          "attributes": {
            "NORMAL": 15,
            "POSITION": 16,
            "TANGENT": 17,
            "TEXCOORD_0": 18
          },
          "indices": 19,
          "material": 1
        }
      ]
    }
  ]
}